# xmcd
#
# Track frame offsets: 
#        150
#        56250
#        96450
#        129050
#        157970
#        239517
#
# Disc length: 3717 seconds
#
# Revision: 0
# Processed by: cddbd v1.5.2PL0 Copyright (c) Steve Scherf et al.
# Submitted via: ExactAudioCopy v0.99pb5
#
DISCID=420e8306
DTITLE=Led Zeppelin  - Avocado Club-Winterland Ballroom - San Francisc
DTITLE=o CA - D 2
DYEAR=1900
DGENRE=
TTITLE0=White Summer \\ Black Mountain Side
TTITLE1=Killing Floor
TTITLE2=Babe I'm Gonna Leave You
TTITLE3=Pat's Delight
TTITLE4=As Long As I Have You
TTITLE5=Whole Lotta Love
EXTD=
EXTT0=
EXTT1=
EXTT2=
EXTT3=
EXTT4=
EXTT5=
PLAYORDER=
